<svg width="331" height="260" viewBox="0 0 331 260" fill="none" xmlns="http://www.w3.org/2000/svg">
<path d="M212.41 77.2149C205.75 73.2803 201.173 68.4598 199.159 63.2584C194.599 52.4527 193.951 28.0029 158.4 27.6269C122.848 27.2509 114.811 43.7381 117.201 52.0676C119.548 60.2497 131.414 84.6456 211.156 79.116C211.541 79.0888 211.904 79.0051 212.205 78.8741C212.506 78.7431 212.734 78.5699 212.863 78.3735C212.993 78.1771 213.019 77.9651 212.939 77.7607C212.859 77.5563 212.676 77.3675 212.41 77.2149Z" fill="#EDD2AC" fill-opacity="0.6"/>
<path d="M6.87562 51.3633C5.68546 47.9988 2.49672 39.2339 6.26045 35.8333C14.9275 27.9721 47.8926 16.1506 68.617 9.55421C74.2085 7.77325 77.609 8.49926 81.3663 17.1956C86.7887 31.2754 91.7171 45.565 96.1165 59.9624C97.2716 65.095 95.7542 66.937 91.7065 68.5805C87.6918 70.2106 73.3884 75.7297 72.6532 76.3167C71.9181 76.9036 74.2583 87.7876 73.3494 88.3008C72.4405 88.8141 66.831 79.4043 66.2114 79.5117C65.5918 79.619 33.5123 91.7763 31.0023 92.5198C28.4923 93.2634 23.4688 95.4267 20.0653 87.0039C15.1043 74.7193 7.94635 54.3874 6.87562 51.3633Z" fill="#EDD2AC" fill-opacity="0.6"/>
<path d="M316.267 213.846C316.176 241.476 249.078 258.627 164.348 258.35C88.4535 258.102 12.6495 235.409 12.7398 207.761C12.8221 182.561 79.9165 166.58 164.647 166.857C257.027 167.014 316.332 193.974 316.267 213.846Z" fill="white"/>
<path d="M170.448 259.143C131.013 259.177 71.9333 252.936 35.5818 235.303C28.747 232.3 22.4973 228.009 17.1435 222.643C13.1181 218.255 10.4352 213.369 10.9197 207.142C11.4406 202.853 13.3819 198.891 16.4056 195.946C48.6833 160.843 196.407 153.334 277.264 181.588C289.764 185.949 306.983 193.223 314.802 204.336C319.764 211.409 319.55 219.22 314.078 226.096C298.077 246.168 247.872 254.104 223.075 256.723C205.584 258.477 188.018 259.285 170.448 259.143ZM156.547 167.729C127.633 167.797 98.7988 169.629 70.5695 175.729C58.4801 178.111 46.6823 181.9 35.3956 187.026C9.03637 199.54 8.62707 214.335 27.1698 226.599C48.2513 240.492 80.3921 247.329 104.962 251.045C139.981 256.157 175.416 257.413 210.688 254.793C236.479 252.897 272.355 247.794 295.721 236.062C310.012 228.909 321.564 218.381 311.481 205.37C307.464 200.545 302.537 196.644 297.01 193.91C261.146 174.281 196.326 167.607 156.547 167.729Z" fill="#501200"/>
<path d="M317.584 210.395C316.756 211.256 315.859 212.189 314.946 212.978C313.222 214.358 311.499 215.739 309.655 217.101C286.002 232.576 243.788 231.052 237.841 230.69C237.427 230.65 237.029 230.502 236.684 230.259C236.34 230.015 236.059 229.685 235.869 229.298C233.906 224.971 231.787 205.272 232.337 200.09C232.497 198.543 232.843 197.842 234.493 197.685C240.254 197.146 263.842 196.143 278.575 185.571C279.575 184.848 280.515 184.039 281.385 183.15C285.905 179.149 288.905 173.583 289.842 167.464C290.003 166.88 290.063 166.271 290.02 165.664C290.092 165.266 290.013 164.855 289.798 164.518C289.584 164.18 289.252 163.944 288.874 163.861C287.877 163.677 287.548 164.558 287.39 165.422C284.679 174.413 283.278 177.198 281.173 179.622C280.446 180.495 279.631 181.283 278.741 181.972C251.886 172.488 228.276 169.801 203.91 166.517C206.556 161.702 211.706 153.601 212.034 152.9C212.178 152.747 212.289 152.565 212.359 152.364C212.43 152.163 212.458 151.948 212.443 151.735C212.427 151.522 212.368 151.314 212.269 151.127C212.17 150.939 212.034 150.777 211.87 150.649C211.047 149.962 210.392 150.482 209.737 151.164C206.498 155.961 203.559 160.972 200.938 166.166C179.112 164.384 180.967 164.894 181.312 164.553C191.439 146.64 206.453 132.308 224.422 123.402C229.38 121.006 240.424 118.666 246.787 118.075C249.246 117.849 248.762 118.405 250.22 119.634C264.586 131.525 277.269 122.135 280.734 119.05C281.162 118.613 281.702 118.315 282.288 118.193C282.874 118.07 283.482 118.128 284.037 118.359C290.909 119.767 322.692 136.125 328.569 168.256C331.488 185.06 328.14 199.503 317.584 210.395Z" fill="#FFB949"/>
<path d="M278.779 22.851C290.648 25.9858 303.756 38.8267 305.894 52.8197C307.173 61.122 303.477 71.8019 299.694 82.6796C296.83 90.9503 294.217 96.4858 287.751 102.441C284.699 105.275 280.159 105.872 279.323 108.983C278.157 113.281 280.272 118.472 279.772 118.831C274.104 122.862 268.371 125.4 262.442 124.804C259.143 124.487 252.052 121.836 250.426 119.761C249.776 118.733 251.588 116.489 252.772 111.993C252.929 111.129 241.919 108.357 238.271 104.169C235.33 101.033 233.132 97.2189 231.853 93.0323C230.574 88.8456 230.25 84.4031 230.907 80.061C232.388 68.6898 236.818 59.6142 237.817 37.9274C237.655 34.8128 244.325 13.7385 278.779 22.851Z" fill="#EDD2AC"/>
<path d="M271.408 85.0164C270.843 85.0612 270.275 84.9887 269.738 84.8029C269.2 84.6172 268.702 84.3219 268.274 83.9341C267.845 83.5462 267.494 83.0735 267.241 82.5431C266.987 82.0127 266.837 81.435 266.797 80.8433C266.777 79.6576 267.198 78.51 267.971 77.6427C268.743 76.7754 269.807 76.2562 270.938 76.1948C271.513 76.1196 272.097 76.1691 272.653 76.3401C273.209 76.511 273.726 76.7999 274.171 77.1887C274.616 77.5775 274.98 78.0579 275.24 78.6002C275.5 79.1424 275.651 79.7349 275.683 80.3409C275.715 80.9468 275.628 81.5533 275.427 82.1226C275.226 82.6919 274.916 83.212 274.515 83.6504C274.114 84.0889 273.631 84.4364 273.097 84.6714C272.562 84.9063 271.988 85.0238 271.408 85.0164Z" fill="#EDD2AC"/>
<path d="M239.512 71.6111C239.546 72.849 239.115 74.0515 238.312 74.9608C237.509 75.87 236.397 76.4137 235.216 76.4751C234.169 76.5473 233.136 76.1898 232.336 75.4783C231.536 74.7668 231.032 73.7571 230.931 72.6631C230.983 71.3795 231.485 70.1609 232.341 69.2404C233.197 68.3199 234.347 67.7623 235.571 67.6742C236.086 67.6209 236.606 67.6845 237.095 67.8608C237.584 68.037 238.031 68.3218 238.405 68.6956C238.779 69.0694 239.072 69.5234 239.263 70.0266C239.454 70.5297 239.539 71.0703 239.512 71.6111Z" fill="#EDD2AC"/>
<path d="M247.327 89.6009C245.999 87.999 244.947 86.1686 244.216 84.1907C244.118 84.0442 244.049 83.8788 244.013 83.7042C243.977 83.5296 243.974 83.3492 244.005 83.1735C244.036 82.9978 244.1 82.8303 244.193 82.6806C244.287 82.531 244.407 82.4022 244.548 82.3017C244.78 82.085 245.072 81.9513 245.381 81.9199C245.69 81.8886 246.001 81.9612 246.268 82.1274C250.059 84.5518 253.724 83.4297 257.323 81.6415C257.994 81.356 258.612 80.9499 259.149 80.4414C259.803 80.1016 260.475 79.7617 261.126 80.2679C261.449 80.4891 261.699 80.8072 261.845 81.1803C261.991 81.5535 262.026 81.9642 261.945 82.3586C261.606 85.9575 258.116 91.3461 254.332 92.1798C253.05 92.4796 251.715 92.3968 250.476 91.9409C249.238 91.485 248.147 90.6742 247.327 89.6009ZM258.896 84.1126C255.427 85.7252 251.608 86.3343 247.837 85.8765C248.312 86.859 249.011 87.7033 249.873 88.3342C250.735 88.9652 251.732 89.3631 252.776 89.4926C255.613 89.3759 257.789 86.341 258.948 84.1128L258.896 84.1126Z" fill="#501200"/>
<path d="M257.551 53.8671C257.525 61.8231 254.07 66.9598 247.271 69.7277C246.445 70.067 246.289 70.4084 246.613 71.2735C247.013 72.4604 247.59 73.5739 248.321 74.5731C248.817 75.2587 248.969 76.1232 248.142 76.6425C247.993 76.7614 247.822 76.8469 247.639 76.8939C247.457 76.9408 247.268 76.9482 247.082 76.9155C246.897 76.8829 246.721 76.8109 246.563 76.704C246.406 76.5972 246.271 76.4576 246.167 76.2941C244.828 74.6146 243.976 72.5697 243.71 70.4C243.627 69.7229 243.781 69.0369 244.143 68.469C244.505 67.901 245.051 67.4895 245.68 67.3104C258.158 62.7432 254.163 49.014 253.994 48.1675C253.825 47.3209 253.845 46.601 254.671 46.2617C255.497 45.9224 256.149 46.4285 256.472 47.3116C257.29 49.3863 257.658 51.6252 257.551 53.8671Z" fill="#501200"/>
<path d="M280.323 55.5082C280.486 55.6353 280.62 55.7976 280.717 55.9842C280.814 56.1707 280.872 56.377 280.886 56.5889C280.9 56.8009 280.87 57.0135 280.798 57.2123C280.727 57.4111 280.615 57.5913 280.471 57.7407C279.815 58.4406 278.974 58.0958 278.323 57.3917C277.376 56.2006 276.152 55.2857 274.768 54.7356C273.385 54.1855 271.889 54.0189 270.426 54.2519C270.236 54.3074 270.037 54.3191 269.843 54.2862C269.649 54.2533 269.464 54.1766 269.3 54.0613C269.137 53.9461 269 53.7951 268.898 53.6188C268.796 53.4425 268.732 53.2451 268.71 53.0403C268.668 52.8706 268.661 52.6933 268.688 52.5203C268.716 52.3472 268.779 52.1823 268.872 52.0363C268.965 51.8904 269.086 51.7667 269.228 51.6735C269.37 51.5803 269.529 51.5196 269.695 51.4955C271.647 51.1465 273.652 51.3326 275.514 52.0358C277.377 52.739 279.034 53.9353 280.323 55.5082Z" fill="#501200"/>
<path d="M248.16 50.2178C247.174 49.8398 246.126 49.6735 245.077 49.7288C244.029 49.7842 243.001 50.06 242.057 50.5399C241.247 51.0593 240.335 51.2183 239.908 50.3529C239.749 49.9577 239.73 49.5159 239.854 49.1071C239.978 48.6983 240.238 48.3493 240.586 48.1231C241.865 47.2943 243.323 46.8148 244.825 46.7285C246.327 46.6423 247.825 46.9519 249.183 47.6291C249.461 47.8175 249.673 48.0941 249.79 48.4185C249.907 48.7429 249.921 49.0978 249.83 49.4313C249.693 49.7542 249.446 50.0128 249.138 50.1578C248.83 50.3029 248.482 50.3242 248.16 50.2178Z" fill="#501200"/>
<path d="M242.016 62.9781C240.692 62.9738 239.716 61.7646 239.55 60.0361C239.533 59.2143 239.8 58.4137 240.301 57.7807C240.801 57.1476 241.503 56.7246 242.277 56.589C245.819 56.6005 245.213 62.9886 242.016 62.9781Z" fill="#501200"/>
<path d="M271.869 64.8042C272.561 64.8747 273.2 65.2181 273.658 65.7645C274.116 66.3109 274.358 67.0195 274.335 67.7462C274.376 68.6037 274.11 69.4463 273.59 70.1101C273.07 70.7739 272.332 71.2113 271.521 71.3371C271.156 71.3277 270.797 71.2366 270.469 71.07C270.14 70.9034 269.849 70.6651 269.616 70.3711C269.382 70.0772 269.212 69.7343 269.115 69.3655C269.019 68.9968 268.998 68.6106 269.056 68.233C269.015 67.3927 269.284 66.5678 269.808 65.9295C270.332 65.2911 271.07 64.8881 271.869 64.8042Z" fill="#501200"/>
<path d="M109.211 118.687C109.829 118.666 110.438 118.859 110.942 119.234C111.447 119.609 111.821 120.147 112.006 120.766C117.776 133.025 132.473 170.261 135.409 176.463C135.501 176.744 135.682 176.984 135.922 177.142C136.163 177.3 136.448 177.367 136.73 177.331C149.433 177.625 186.367 179.905 191.815 180.265C193.294 180.27 194.289 180.795 193.788 181.495C191.304 184.079 156.479 199.068 149.026 202.067C147.298 202.539 145.499 202.649 143.73 202.392C130.874 201.846 51.3632 198.256 36.2042 197.379C35.1917 197.432 34.1931 197.115 33.3797 196.482C32.5662 195.849 31.9887 194.939 31.746 193.908C23.4207 169.185 6.4268 119.557 6.20392 119.377C4.49619 115.915 6.06208 115.434 8.86413 115.425C16.0155 115.359 92.5195 118.452 109.211 118.687Z" fill="#9CC3BA"/>
<path d="M8.92187 113.537C12.2224 113.547 103.941 116.313 111.021 117.146C112.344 117.312 112.737 118.034 113.335 119.224C116.217 126.181 131.299 161.114 133.465 166.288C135.632 171.461 137.886 175.95 138.591 175.97C160.713 176.565 176.694 178.291 194.346 179.266C198.144 179.477 197.638 181.869 196.983 182.389C192.676 185.129 178.147 191.328 169.437 195.079C164.978 196.973 151.274 203.354 148.951 204.012C146.972 204.564 140.201 203.984 138.637 203.979C135.508 203.968 35.046 199.338 33.7918 199.136C33.2281 199.091 32.6906 198.869 32.25 198.498C31.8094 198.127 31.4863 197.625 31.3232 197.058C29.7731 192.697 3.13082 118.162 3.1387 115.75C3.14657 113.338 5.12285 113.524 8.92187 113.537ZM142.721 201.04C144.044 201.206 144.045 200.684 143.551 199.477C138.605 187.49 116.53 135.488 110.353 121.626C110.028 120.923 110.031 120.239 109.034 120.235C107.211 120.23 12.0398 116.805 7.08908 116.789C6.10924 116.785 6.10807 117.145 6.43245 117.83C7.07979 119.633 32.4215 192.364 32.7447 193.409C33.0679 194.454 33.888 196.005 34.8845 196.17C38.4925 196.758 141.93 201.019 142.755 201.022L142.721 201.04ZM190.45 182.368C188.732 182.182 144.443 179.103 139.664 179.088C138.993 179.086 138.649 179.085 138.99 179.95C141.77 186.781 144.619 193.486 147.674 200.192C147.981 200.877 148.171 200.878 148.825 200.538C153.49 198.465 188.572 183.712 190.485 182.35L190.45 182.368Z" fill="#501200"/>
<path d="M229.789 69.6705C227.381 68.4454 225.422 66.4293 224.21 63.9295C222.999 61.4297 222.601 58.5834 223.078 55.8246C223.516 52.8901 224.848 50.182 226.874 48.1031C228.9 46.0243 231.513 44.6859 234.324 44.2872C236.473 44.2942 231.763 70.559 229.789 69.6705Z" fill="white"/>
<path d="M300.884 70.7672C302.231 69.0616 301.723 66.792 301.404 64.3789C296.658 28.0752 265.602 20.5218 261.791 18.9613C258.684 17.7091 255.196 17.0318 255.199 16.1678C255.202 15.3038 261.322 15.3237 263.452 15.6727C274.419 17.3112 284.585 22.6163 292.437 30.7974C300.335 39.1213 304.194 47.0359 306.699 58.9962C307.033 62.4413 307.188 65.9029 307.164 69.3657C307.16 70.4097 319.16 80.529 310.523 93.3888C307.241 98.2381 300.272 100.429 294.841 100.07C291.868 99.8799 290.528 99.5516 290.55 97.9856C290.677 90.606 294.963 78.4699 300.884 70.7672Z" fill="white"/>
<path d="M319.269 47.3368C317.626 23.9313 299.732 18.2568 296.779 17.0232C300.478 16.7737 304.172 17.5625 307.482 19.3081C308.151 19.4903 308.976 19.655 309.305 18.7921C309.635 17.9291 309.155 17.4056 308.486 16.9894C304.584 14.8606 300.162 14.006 295.791 14.5359C294.965 14.5332 294.323 11.2551 293.828 10.0475C293.504 9.34442 293.18 8.47936 292.113 8.81787C291.046 9.15639 291.456 10.0397 291.78 10.9048C292.342 11.8948 292.625 13.0318 292.594 14.1835C292.112 13.2827 291.438 12.5105 290.625 11.927C280.913 1.18526 263.614 -2.32725 250.889 4.02123C245.104 6.77436 240.792 11.1883 239.464 17.988C236.789 19.541 234.443 21.6459 232.567 24.1755C228.974 29.7078 228.964 38.0238 235.483 42.1851C235.065 42.1934 234.649 42.2524 234.244 42.3611C231.527 42.9363 228.993 44.2257 226.882 46.1081C224.771 47.9905 223.151 50.404 222.176 53.1217C221.191 56.2717 221.253 59.6775 222.351 62.7856C223.448 65.8937 225.518 68.5214 228.223 70.2416C228.889 70.6909 229.688 70.8725 230.473 70.7529C230.071 72.6956 229.687 74.6564 229.353 76.6533C227.964 84.322 229.153 92.2572 232.718 99.1104C234.405 102.392 236.776 105.234 239.656 107.425C242.535 109.616 245.849 111.099 249.351 111.765C250.657 111.931 250.828 112.454 250.497 113.569C250.097 114.931 249.598 116.259 249.006 117.542C248.761 117.913 248.657 118.366 248.716 118.813C248.775 119.26 248.992 119.668 249.325 119.955C257.701 129.144 273.534 128.854 281.49 119.196C281.781 118.92 281.972 118.548 282.033 118.142C282.094 117.736 282.02 117.321 281.824 116.965C280.112 114.709 279.376 108.659 281.528 107.622C285.126 105.959 288.407 103.628 291.211 100.741C292.905 101.119 294.64 101.246 296.367 101.118C308.247 100.887 313.873 93.9754 314.729 84.5821C315.034 81.2833 314.322 77.9692 312.697 75.1254C317.69 66.8451 319.995 57.0982 319.269 47.3368ZM229.466 68.4636C228.469 68.4604 220.411 62.044 224.362 52.2469C226.528 47.0699 233.789 44.8436 234.131 45.3667C234.269 45.7515 234.321 46.1643 234.282 46.5732C234.28 47.0952 233.438 52.2765 233.106 54.1654C232.632 57.0799 230.789 68.6479 229.466 68.4636ZM289.429 99.0616C286.753 102.108 283.396 104.41 279.66 105.762C276.683 106.796 277.805 115.782 278.952 117.333C279.101 117.541 279.168 117.801 279.139 118.06C279.109 118.318 278.985 118.554 278.793 118.719C275.29 122.163 270.704 124.144 265.901 124.287C261.099 124.431 256.413 122.727 252.73 119.498C252.062 118.812 251.909 118.289 252.238 117.588C252.746 116.451 253.081 115.237 253.229 113.991C253.233 112.947 253.732 112.787 254.729 112.79C257.152 112.935 259.583 112.822 261.984 112.454C262.982 112.295 264.288 112.3 264.139 110.661C263.989 109.023 262.648 109.288 261.667 109.447C254.564 110.468 247.641 109.059 244.484 107.159C234.102 101.581 230.509 91.2191 231.7 79.127C232.417 70.1293 237.113 58.6425 238.349 43.5445C240.347 44.2018 242.423 44.566 244.517 44.6266C249.673 44.9855 260.855 42.43 260.855 42.43C261.843 45.1872 266.103 51.2492 278.486 49.5616C280.855 49.1114 283.166 48.3697 285.369 47.3521C284.724 49.4852 284.274 51.6776 284.024 53.8997C283.355 63.9416 288.279 72.3277 295.986 75.7369C292.074 83.9141 290.132 89.1458 289.328 98.3233C289.331 98.5729 289.365 98.8211 289.429 99.0616ZM305.424 96.7018C301.632 98.8218 297.268 99.5371 293.04 98.7314C292.061 98.5482 291.718 98.2051 291.894 97.1616C292.889 87.9353 296.158 79.1378 301.38 71.6325C302.457 69.8326 302.873 67.6848 302.552 65.5883C302.426 56.7678 299.166 49.5211 294.721 42.1626C284.875 24.8503 264.267 18.663 259.168 16.8463C256.369 15.7932 268.398 17.0385 274.339 19.3079C290.972 26.7962 301.775 40.1336 305.376 58.7934C306.979 67.8887 304.671 69.2852 307.482 71.7604C309.31 73.3186 310.746 75.3213 311.665 77.5939C312.584 79.8665 312.959 82.3402 312.756 84.7994C312.553 87.2586 311.779 89.6287 310.501 91.7032C309.223 93.7778 307.48 95.4938 305.424 96.7018Z" fill="#501200"/>
<path d="M68.3265 157.236C68.3164 160.35 66.5889 162.936 63.529 162.926C62.0446 162.951 60.6103 162.365 59.5339 161.295C58.4576 160.224 57.8249 158.755 57.7718 157.201C57.7967 149.569 68.3496 150.162 68.3265 157.236Z" fill="#9CC3BA"/>
<path d="M212.855 201.592C212.38 199.79 204.643 194.995 203.975 194.129C203.478 193.605 200.825 190.248 205.307 191.721C206.457 192.103 221.771 198.363 228.71 199.916C232.661 200.81 232.865 201.477 232.474 205.454C231.709 213.407 234.402 225.674 234.127 225.835C229.181 229.419 222.077 230.98 216.125 232.167C199.13 235.585 184.962 226.053 183.984 225.51C176.674 221.472 185.316 222.706 187.619 223.092C190.436 223.587 197.34 225.715 199.161 225.901C199.66 225.903 200.491 223.998 199.495 223.652C192.9 221.702 186.627 218.714 180.89 214.79C179.175 213.614 174.792 208.056 182.378 211.86C188.385 215.005 194.723 217.4 201.264 218.996C201.745 219.178 203.094 216.554 201.428 216.063C198.818 215.298 185.116 210.303 179.359 204.416C173.945 198.873 180.367 201.306 181.088 201.65C185.378 203.914 195.554 209.257 201.686 210.879C203.816 211.444 204.979 207.812 201.699 206.739C196.548 205.049 185.397 198.028 184.9 197.523C180.874 193.441 185.408 194.77 186.06 194.934C202.8 201.379 212.854 202.114 212.855 201.592Z" fill="#EDD2AC"/>
<path d="M208.579 200.372C207.259 199.323 206.11 198.294 204.961 197.426C203.84 196.407 202.792 195.302 201.826 194.122C197.567 187.718 206.135 190.86 207.457 191.206C214.703 193.642 221.604 196.652 228.868 198.872C234.141 200.491 232.989 200.451 232.974 205.113C233.014 211.34 233.715 217.542 235.062 223.606C235.384 225.155 235.552 226.362 234.053 227.401C220.842 235.296 208.653 235.688 195.271 232.674C191.32 231.78 184.35 229.039 180.941 225.554C179.107 223.748 176.197 219.94 183.275 221.241C204.132 225.071 184.147 222.864 177.026 213.445C175.571 211.514 173.71 207.836 178.363 209.471C180.973 210.398 192.852 215.404 195.651 216.278C189.699 213.722 184.106 210.331 179.027 206.197C174.586 202.727 172.613 196.348 181.367 200.337C188.233 203.473 193.208 206.424 200.143 209.542C200.47 209.543 201.757 210.231 201.862 209.386C201.968 208.54 201.693 208.521 201.213 208.178C200.063 207.814 198.913 207.288 197.78 206.78C192.372 204.423 183.586 199.678 181.156 196.358C180.66 195.673 177.852 192.099 182.971 193.25C184.689 193.634 186.286 194.269 188.123 194.833C194.58 196.816 200.813 199.014 207.41 200.422C207.598 200.496 207.798 200.53 207.999 200.521C208.2 200.513 208.397 200.462 208.579 200.372ZM179.504 212.877C181.214 215.636 194.156 221.385 199.755 222.969C200.752 223.134 201.575 223.839 201.242 225.566C200.888 228.679 198.435 227.213 195.618 226.574C192.801 225.934 180.59 222.258 182.596 223.939C187.465 228.041 195.28 230.028 199.575 230.906C210.026 233.382 220.981 231.826 230.428 226.525C230.928 226.185 233.062 225.328 232.416 223.238C230.936 218.409 230.651 210.974 230.674 203.9C230.678 202.676 229.682 202.529 228.703 202.093C227.364 201.585 219.448 199.021 216.838 197.897C197.681 189.716 208.555 197.222 210.39 198.578C211.367 199.283 212.551 199.953 213.529 200.658C218.005 203.895 212.847 204.256 208.739 203.918C201.47 203.247 183.497 195.394 184.335 196.765C185.173 198.135 197.515 203.72 203.11 206.33C204.432 206.838 204.098 209.087 203.923 210.131C203.418 211.929 202.607 213.042 200.786 212.712C193.914 211.43 176.055 200.212 178.471 202.793C184.81 209.169 192.657 213.662 201.205 215.81C202.664 216.552 202.335 217.199 202.177 218.405C201.824 221.176 200.673 221.028 199.367 220.646C192.807 218.788 178.358 210.965 179.504 212.877Z" fill="#501200"/>
<path d="M149.759 45.9909C149.738 45.8185 149.752 45.6434 149.8 45.4771C149.848 45.3107 149.93 45.1571 150.039 45.0263C150.149 44.8956 150.283 44.7907 150.434 44.7186C150.585 44.6466 150.749 44.6091 150.915 44.6086C151.741 44.6113 152.083 44.9545 152.235 45.819C152.356 47.2554 152.403 48.6977 152.376 50.1394C153.749 50.2369 155.127 50.2414 156.501 50.1529C156.679 50.137 156.858 50.1621 157.026 50.2264C157.193 50.2908 157.345 50.3928 157.471 50.5254C157.597 50.658 157.693 50.8178 157.754 50.9937C157.814 51.1695 157.837 51.3571 157.82 51.5432C157.818 52.4072 157.318 52.7476 156.493 52.7449C155.173 52.6845 153.85 52.7404 152.539 52.912L152.527 56.404C152.524 57.268 152.35 57.9514 151.198 57.9477C150.047 57.9439 149.878 56.9173 149.881 56.1433L149.891 52.9034C149.892 52.5614 146.763 52.7131 146.454 52.5501C145.63 52.3674 145.132 52.0238 145.135 51.1598C145.138 50.2958 145.792 50.118 146.463 49.9581C146.789 49.9592 149.9 50.1314 149.901 49.7894C149.769 48.5283 149.721 47.259 149.759 45.9909Z" fill="#501200"/>
<path d="M184.752 53.2158C185.578 53.2185 186.729 53.4023 186.725 54.6083C186.721 55.8143 185.741 55.8111 184.744 55.8078C182.115 55.6192 179.588 55.611 176.992 55.4405C176.167 55.4378 175.515 55.2557 175.277 54.2289C175.04 53.2021 176.107 52.8456 177.001 52.8485C177.895 52.8514 182.948 53.0299 184.752 53.2158Z" fill="#501200"/>
<path d="M177.009 50.2554C176.184 50.2527 175.686 50.0711 175.535 49.0446C175.383 48.0181 176.038 47.6602 176.863 47.6629C179.666 47.4921 182.468 47.5012 185.27 47.5104C185.432 47.5227 185.591 47.5685 185.736 47.645C185.882 47.7215 186.012 47.8273 186.118 47.9564C186.225 48.0854 186.306 48.2352 186.357 48.3971C186.408 48.559 186.429 48.73 186.417 48.9001C186.405 49.0703 186.361 49.2363 186.288 49.3888C186.215 49.5413 186.114 49.6772 185.991 49.7888C185.867 49.9004 185.724 49.9854 185.57 50.0391C185.415 50.0929 185.252 50.1141 185.089 50.1018C183.782 50.2775 178.333 50.2597 177.009 50.2554Z" fill="#501200"/>
<path d="M140.507 54.1529C131.793 54.128 132.769 54.2082 131.791 54.162C134.555 52.2206 140.011 48.6314 139.023 45.3363C138.774 44.6388 138.277 44.1464 137.585 43.9113C135.59 43.2314 132.528 44.93 131.909 45.3632C131.892 45.3721 130.234 46.2944 130.051 47.4347C129.888 48.4765 130.93 49.2375 131.603 48.5412C131.833 48.3038 131.908 47.9637 131.824 47.6608C132.832 46.5053 136.969 44.7278 137.396 45.9148C137.73 47.0281 135.971 48.9943 132.17 51.7562L131.758 52.0718C131.729 52.0861 128.831 53.6974 128.827 54.8759C128.822 56.246 130.219 55.9103 140.501 55.9439C140.975 55.9454 141.362 55.5455 141.363 55.0512C141.365 54.5569 140.981 54.1544 140.507 54.1529Z" fill="#9CC3BA"/>
<path d="M168.06 43.8624C166.732 43.9837 162.531 47.0323 162.509 47.0596C162.392 47.1946 162.245 47.4504 162.161 47.5888C159.991 48.4021 163.849 50.518 164.923 47.8492C165.142 47.6646 166.297 46.9157 167.33 46.2824C167.281 46.79 167.127 47.5727 167.126 47.9209C167.117 50.4642 167.109 53.0945 166.893 55.6097C166.801 56.6748 169.563 56.7692 169.655 55.6961C169.908 52.7378 169.826 48.1715 169.976 47.242C170.187 45.8969 170.279 44.8173 169.289 44.0985C168.977 43.9153 168.499 43.8251 168.062 43.8656L168.06 43.8624Z" fill="#9CC3BA"/>
<path d="M130.586 209.94C131.302 209.817 131.541 209.693 131.541 209.693C129.179 206.67 130.593 203 130.139 200.823C130.497 200.824 130.974 200.576 131.214 200.327C131.931 199.579 131.341 197.705 131.345 196.706C131.354 193.887 132.649 191.686 132.793 191.092C132.794 190.712 135.589 190.725 87.4732 192.568C84.5631 194.579 82.4225 201.62 84.9233 203.817C85.2515 203.818 86.0181 203.896 86.5794 203.921C85.1146 206.076 84.9583 212.674 86.681 214.593C86.1237 214.417 84.7278 213.97 83.8274 213.587C85.8489 218.712 83.4539 224.286 82.5978 224.643C82.8881 224.595 124.141 220.906 129.118 220.55C134.399 215.056 131.243 210.495 130.586 209.94Z" fill="white"/>
<path d="M83.7083 213.406C83.5324 213.331 69.8955 206.993 69.3004 206.741C69.4188 206.991 69.4176 207.367 69.4167 207.615C69.4109 209.393 68.3955 211.435 67.3718 212.854C67.2522 212.978 66.0554 213.974 66.2947 214.223C66.651 214.598 67.1322 214.839 67.6028 215.101C68.6873 215.705 80.6916 224.259 81.8822 224.637L82.2397 224.638C83.0752 224.267 83.5572 222.646 83.678 222.145C84.7592 219.526 84.8902 215.906 83.7066 213.404L83.7083 213.406Z" fill="white"/>
<path d="M86.7199 204.177C80.4046 202.172 69.535 196.824 68.6189 196.501C66.106 201.72 66.984 204.725 68.2304 205.99C68.5936 206.358 69.0626 206.617 69.4197 206.743C69.5939 206.835 80.4259 212.051 86.6972 214.804C84.7943 213.049 85.1627 206.045 86.7199 204.177Z" fill="#EDD2AC"/>
<path d="M80.8821 202.409C80.1662 202.656 79.9238 203.904 79.6834 204.529C78.961 206.774 78.9528 209.272 79.7798 211.521C79.7798 211.521 73.4679 209.003 71.0862 207.872C69.0345 203.541 71.3824 198.632 72.3082 198.636L80.8821 202.409Z" fill="#9CC3BA"/>
<path d="M108.371 184.143C105.748 184.01 103.243 184.002 100.619 184.243C87.0226 184.484 78.8356 184.416 70.9214 185.394C69.2504 185.638 67.1051 185.631 65.9067 187.126C64.3885 188.706 64.0383 193.326 67.1917 195.62C67.5449 195.878 67.9056 195.997 68.2623 196.248C68.4367 196.248 79.8945 201.308 81.2419 201.785C82.9097 202.539 84.3383 203.043 85.173 203.42C84.46 202.794 84.1053 201.917 84.1086 200.919C83.878 198.545 84.6008 196.174 85.92 194.182C86.7638 192.863 87.0753 192.676 87.5947 192.314L132.679 190.587C129.224 189.451 113.14 184.779 108.373 184.14L108.371 184.143Z" fill="#FFB949"/>
<path d="M94.5402 195.416C95.3845 194.978 111.145 194.298 112.675 194.256C113.109 194.251 113.548 194.637 113.562 195.136C113.574 195.636 113.198 196.05 112.721 196.063C108.677 196.175 96.1453 196.854 95.1825 197.086C94.2049 197.593 93.4727 195.972 94.5419 195.414L94.5402 195.416Z" fill="#501200"/>
<path d="M107.237 198.297C108.837 198.127 117.148 197.716 122.79 197.353C123.262 197.324 123.675 197.701 123.705 198.201C123.734 198.7 123.372 199.127 122.895 199.158C120.753 199.296 107.582 200.058 106.937 200.087C105.545 200.145 104.531 198.587 107.237 198.297Z" fill="#501200"/>
<path d="M104.795 206.96C103.688 206.956 103.644 205.22 104.749 205.153C105.919 205.083 117.513 204.46 120.352 204.206C121.511 204.128 121.619 205.908 120.498 206.008C117.106 206.309 104.968 206.959 104.795 206.958L104.795 206.96Z" fill="#501200"/>
<path d="M95.0722 211.228C93.9667 211.224 93.9188 209.493 95.0228 209.421C95.1489 209.412 107.711 208.585 112.066 208.23C112.54 208.192 112.958 208.562 112.995 209.062C113.031 209.559 112.675 209.994 112.2 210.034C107.831 210.39 95.0912 211.23 95.0722 211.229L95.0722 211.228Z" fill="#501200"/>
<path d="M132.92 192.887C133.194 192.404 133.537 191.802 133.539 191.093C133.541 190.468 133.038 189.938 132.441 189.936L87.2048 191.651C86.7631 191.523 69.3485 187.357 67.8147 187.352C67.3397 187.35 66.9549 187.751 66.9516 188.25C66.9499 188.747 67.3338 189.155 67.8088 189.161C68.1041 189.163 69.2641 189.39 70.7986 189.715C69.8666 191.063 69.3173 193.721 69.7057 195.904C69.4539 195.807 69.2383 195.72 69.1004 195.625C69.0108 195.562 68.9107 195.518 68.8072 195.494C67.8639 195.008 67.1754 195.865 67.4667 196.6C65.4179 199.317 65.4365 205.778 68.675 207.4C68.6887 209.037 67.8159 210.772 66.8858 212.089C65.9135 213.097 65.0729 213.968 65.8028 214.739C66.1608 215.116 66.712 215.594 67.3642 215.811C69.4168 217.2 80.4012 224.951 81.7522 225.382C82.4286 225.594 116.99 222.18 128.941 221.326C129.174 221.309 129.376 221.197 129.522 221.029C129.588 221.006 129.652 220.974 129.712 220.932C131.437 219.755 132.465 217.961 132.69 215.742C132.895 213.717 132.391 211.612 131.689 210.302C132.277 210.096 132.465 209.352 132.091 208.869C130.071 206.285 131.117 201.896 131.117 201.711C131.126 201.646 131.215 201.464 131.265 201.355C131.298 201.287 131.321 201.218 131.337 201.146C132.517 200.334 132.378 198.963 132.181 197.499C131.942 195.72 132.359 193.866 132.92 192.887ZM86.7119 194.502C86.8472 194.327 86.9807 194.152 87.0069 194.078C87.0381 194.045 87.0676 194.015 87.0953 193.986C88.287 196.138 87.8457 200.11 85.1378 202.585C84.3556 201.452 84.384 197.529 86.7119 194.502ZM86.9941 205.389C88.8969 207.703 88.5404 211.635 86.9221 213.177C85.9347 211.385 86.0792 207.343 86.9941 205.389ZM84.9401 212.893C84.6969 212.788 84.4347 212.68 84.1518 212.569C83.1272 212.137 81.8303 211.525 80.6316 210.989C79.5452 207.795 80.4415 204.13 81.5728 203.089C82.2542 203.38 85.2018 204.697 85.3969 204.7C84.4538 206.82 84.2122 210.455 84.9401 212.893ZM80.4797 191.908C85.5643 193.111 84.6738 192.887 85.5696 193.096C85.3787 193.365 85.1793 193.591 84.9692 193.919C83.4226 196.26 82.7022 198.932 83.0402 201.755C82.6969 201.615 79.5128 200.268 79.4196 200.233C78.4729 197.629 78.5054 194.028 80.478 191.909L80.4797 191.908ZM72.8934 199.34C75.748 200.595 77.0603 201.26 78.706 201.886C79.0752 202.026 79.415 202.168 79.7772 202.329C79.3919 202.893 79.2309 203.539 78.9885 204.239C78.3242 206.145 78.2467 208.194 78.617 210.115C76.2695 209.085 73.8981 207.974 71.9752 207.063C70.5096 203.642 71.9593 199.773 72.8952 199.342L72.8934 199.34ZM68.9646 197.544C69.4614 197.739 69.7513 197.832 71.1292 198.491C70.5722 199.264 70.322 200.263 70.322 200.263C69.5892 201.975 69.4068 203.883 69.7652 205.739C69.3554 205.876 68.9233 205.431 68.8234 205.328C67.515 204.001 67.3557 199.378 68.9646 197.544ZM82.911 221.74C82.7319 222.112 82.3657 223.178 82.1139 223.584C80.2601 222.648 69.0861 214.806 68.1864 214.213C68.052 214.124 67.8241 214.089 67.5828 213.933C67.7423 213.751 67.9451 213.529 68.1843 213.275C69.5967 211.315 70.2262 209.485 70.3615 208.25C72.76 209.515 79.692 212.558 82.6224 213.861C82.5872 214.049 82.609 214.248 82.6965 214.432C83.7772 216.715 83.8494 219.466 82.911 221.742L82.911 221.74ZM84.0851 223.466C84.2662 223.032 84.329 222.839 84.4752 222.505C85.5523 220.058 85.5666 217.267 84.7008 214.752C85.8684 215.289 85.8023 215.441 86.2082 215.442C91.4384 215.456 118.389 212.357 125.987 211.318C124.86 213.821 125.169 217.364 127.029 219.659L84.0851 223.466ZM130.035 208.852C119.987 210.653 97.0551 212.933 88.8883 213.519C90.3849 211.155 90.4718 207.31 88.6598 204.674C98.7015 204.369 127.443 201.94 129.38 201.666C129.022 203.388 128.86 206.444 130.035 208.852ZM130.975 215.55C130.818 217.1 130.175 218.326 129.063 219.199C126.631 217.276 126.485 212.868 128.214 211.067C128.37 210.905 128.199 210.984 129.867 210.711C130.374 211.264 131.193 213.388 130.975 215.55ZM131.438 191.96C130.856 192.982 130.371 194.796 130.365 196.578C130.363 197.382 130.782 199.256 130.49 199.559C130.386 199.665 130.125 199.791 130.025 199.792C129.849 199.795 98.4165 202.764 87.2665 202.897C89.6043 200.02 89.9852 196.052 88.7812 193.414C134.831 191.611 131.637 191.619 131.438 191.96Z" fill="#501200"/>
<path d="M89.1086 218.481C87.9908 218.569 87.8515 216.798 88.9677 216.679C89.4722 216.624 101.372 215.348 104.917 215.11C105.394 215.079 105.804 215.457 105.833 215.954C105.863 216.452 105.502 216.883 105.027 216.914C101.38 217.157 89.3747 218.46 89.1086 218.481Z" fill="#501200"/>
<path d="M104.284 220.255C103.166 220.32 103.06 218.548 104.176 218.45C104.656 218.408 116.006 217.416 119.321 217.266C119.798 217.244 120.201 217.632 120.222 218.13C120.242 218.627 119.873 219.051 119.396 219.073C115.758 219.237 104.939 220.216 104.286 220.254L104.284 220.255Z" fill="#501200"/>
<path d="M80.7096 218.797C80.3762 218.796 80.8367 219.014 73.0207 214.281C72.6087 214.032 72.4671 213.478 72.7051 213.046C72.9432 212.613 73.4705 212.465 73.886 212.716L81.1452 217.111C81.9088 217.573 81.5904 218.802 80.7078 218.799L80.7096 218.797Z" fill="#501200"/>
<path d="M129.136 241.158C129.136 241.158 128.977 238.886 127.452 238.358C127.181 238.264 124.359 241.174 124.359 241.174L129.136 241.158Z" fill="#FFB949"/>
<path d="M163.38 220.369C161.674 220.824 133.19 233.387 130.958 234.669C130.94 234.679 124.198 240.369 123.704 240.903C123.668 240.937 123.639 240.979 123.62 241.026C123.6 241.073 123.591 241.124 123.592 241.174C123.593 241.226 123.605 241.275 123.626 241.321C123.648 241.367 123.679 241.407 123.716 241.439C124.421 242.066 133.304 240.547 133.328 240.533C166.092 226.226 165.664 226.442 166.02 225.955C167.251 224.287 165.399 219.833 163.38 220.369ZM133.793 239.551L134.257 238.164L161.08 226.301L161.477 227.418C153.947 230.74 137.421 237.962 133.789 239.548L133.793 239.551ZM160.839 225.619L133.866 237.543L132.608 237.276L133.411 236.144L160.367 224.306L160.839 225.619ZM160.126 223.627L133.227 235.44L132.018 234.932C135.937 233.012 152.222 225.798 159.762 222.603L160.126 223.627ZM124.759 240.896C126.143 239.673 129.617 236.725 131.214 235.378L132.659 235.984C131.662 237.389 131.587 237.398 131.679 237.647C131.77 237.896 131.868 237.86 133.501 238.206L132.944 239.866C129.733 240.355 126.232 240.812 124.759 240.896ZM165.208 225.746C165.029 225.838 163.875 226.355 162.113 227.134L160.405 222.332C162.094 221.621 163.247 221.155 163.548 221.074C164.975 220.694 166.581 225.031 165.208 225.746Z" fill="#501200"/>
<path d="M25.1 61.1378C24.9126 61.3193 24.3061 61.2017 24.5858 60.6651C24.8679 60.3004 25.0696 59.8747 25.1768 59.4177C25.284 58.9608 25.2941 58.4837 25.2063 58.0202C25.1058 57.5805 24.9043 57.1722 24.6195 56.831C23.581 57.4383 22.3714 57.7209 21.7496 57.4545C21.5022 57.3646 21.2839 57.2023 21.1209 56.9869C20.9579 56.7715 20.8569 56.5121 20.8302 56.2396C20.8034 55.9672 20.8519 55.6932 20.9699 55.4503C21.0879 55.2075 21.2703 55.006 21.4956 54.8699C21.8081 54.6996 22.1585 54.6186 22.5119 54.6348C22.8654 54.6511 23.2095 54.7641 23.51 54.9625C23.9515 55.2321 24.3609 55.556 24.7295 55.9273C25.1552 55.6248 25.5093 55.2249 25.7655 54.7573C26.0216 54.2898 26.1733 53.7666 26.2091 53.2269C26.2122 53.1331 26.2506 53.0449 26.316 52.9815C26.3815 52.9181 26.4685 52.8848 26.558 52.8889C26.6475 52.8931 26.7321 52.9342 26.7932 53.0034C26.8544 53.0726 26.887 53.1642 26.8839 53.2579C26.8466 53.8934 26.6749 54.5109 26.3812 55.0657C26.0876 55.6205 25.6794 56.0988 25.1861 56.466C26.2551 58.0262 26.1759 59.5336 25.0844 61.1529L25.1 61.1378ZM21.5732 56.0517C21.5805 56.2059 21.6332 56.3545 21.7241 56.4769C21.8149 56.5994 21.9395 56.6897 22.0806 56.7354C22.8451 56.8324 23.6148 56.6411 24.2517 56.1959C23.9387 55.939 23.6092 55.7049 23.2657 55.4955C22.7453 55.2127 22.265 55.0955 21.9143 55.333C21.8063 55.407 21.7199 55.5106 21.6643 55.6328C21.6088 55.755 21.5863 55.8911 21.5993 56.0264L21.5732 56.0517Z" fill="#501200"/>
<path d="M35.8694 43.1252L23.5929 41.2773C23.1622 41.2503 23.1897 40.5906 23.775 40.5622L36.0978 42.4504C36.533 42.4824 36.3451 43.203 35.8694 43.1252Z" fill="#FFB949"/>
<path d="M37.1553 41.697L33.3246 39.1606C32.9176 38.8709 33.0872 38.3698 33.557 38.6497L37.3877 41.1861C37.4304 41.2053 37.4704 41.2336 37.5049 41.269C37.5394 41.3044 37.5675 41.346 37.5874 41.3909C37.6072 41.4358 37.6181 41.4828 37.6195 41.5287C37.6208 41.5746 37.6125 41.6181 37.5952 41.6563C37.5778 41.6944 37.5518 41.7262 37.5191 41.7495C37.4863 41.7727 37.4475 41.7867 37.4055 41.7906C37.3636 41.7945 37.3194 41.7881 37.2761 41.7719C37.2329 41.7558 37.1916 41.7302 37.1553 41.697Z" fill="#FFB949"/>
<path d="M53.4843 32.439L54.9995 24.9586C55.1562 24.299 55.9315 24.5769 55.7747 25.2365L54.2532 32.7097C54.047 33.5508 53.387 33.041 53.4843 32.439Z" fill="#FFB949"/>
<path d="M56.0375 32.5216L58.5302 28.7866C58.7729 28.337 59.5204 28.5836 59.1864 29.2796L56.6716 33.0021C56.2568 33.4942 55.7412 33.023 56.0375 32.5216Z" fill="#FFB949"/>
<path d="M64.6336 30.1981L58.2951 34.935C57.6542 35.357 57.4233 34.6804 57.8488 34.3206L64.1771 29.583C64.5037 29.3189 65.081 29.7647 64.6336 30.1981Z" fill="#FFB949"/>
<path d="M45.3828 31.5177C44.011 32.1378 43.0495 29.6763 42.9121 29.4014L42.6392 29.6656C41.9804 30.4004 42.0226 31.5943 42.8397 32.8536C43.1656 33.4613 42.5797 33.8249 42.1742 33.2942C40.8938 31.0449 41.6881 29.6635 42.0747 29.1818C42.2647 28.9753 42.4832 28.7999 42.7226 28.6615C42.4844 26.004 45.6645 24.4698 45.7213 24.4147C46.0453 24.2083 46.4484 24.7841 46.0017 25.0664C46.0017 25.0664 43.299 26.4604 43.4056 28.4079C43.9815 28.2909 44.573 28.3636 45.0976 28.6158C46.0991 29.0093 46.9853 30.8244 45.3828 31.5177ZM43.6463 29.0982C43.8148 29.7188 44.6347 30.9216 45.2672 30.8137C45.3713 30.7748 45.4612 30.7013 45.5228 30.6047C45.5844 30.5082 45.6143 30.3939 45.6077 30.2798C45.6646 30.1173 45.5892 29.5783 44.8826 29.2321C44.4932 29.0911 44.0744 29.0512 43.6616 29.1156L43.6463 29.0982Z" fill="#501200"/>
<path d="M66.2685 50.9786L66.6826 53.3009L65.7876 53.3656C65.2037 53.3189 65.2409 54.1908 65.8771 54.0811L66.8027 53.9974L67.2127 56.2181C67.3092 56.7369 67.9846 56.7794 67.8992 56.1654L67.5293 54.0008L68.2785 53.7712C68.8122 53.761 68.774 52.9957 68.1891 53.0556L67.4112 53.1019L66.9559 50.8299C66.8585 50.4071 66.2294 50.3092 66.2685 50.9786Z" fill="#FFB949"/>
<path d="M39.1964 62.5956L38.7093 63.369L37.0784 62.278C36.6718 61.9503 36.1503 62.5524 36.6334 62.9137L38.2643 64.0047L37.7507 64.8145C37.4256 65.334 37.9808 65.8301 38.3114 65.1975L38.825 64.3877L40.4161 65.4203C40.9307 65.7511 41.3812 65.0025 40.8611 64.7847L39.27 63.752L39.7572 62.9786C40.134 62.3982 39.5165 62.0702 39.1964 62.5956Z" fill="#FFB949"/>
<path d="M59.5281 49.8547C59.4462 49.934 59.2108 49.9302 59.1004 49.8052C59.0295 49.7352 58.9778 49.6465 58.9563 49.558C58.9348 49.4695 58.9453 49.388 58.9854 49.3309C58.9854 49.3309 60.4833 47.1965 59.7304 44.2889C59.657 43.8533 59.4857 43.4041 59.2313 42.9805C58.977 42.5568 58.6473 42.1715 58.271 41.8582C57.9824 41.6644 57.6777 41.5398 57.3857 41.4959C57.0936 41.4521 56.8239 41.4906 56.6019 41.6077C56.5289 41.6358 56.4381 41.6288 56.3461 41.5879C56.2542 41.547 56.1672 41.4749 56.1012 41.3849C56.0447 41.2912 56.016 41.1901 56.0206 41.1003C56.0252 41.0106 56.0627 40.9383 56.1261 40.897C57.5596 40.2651 59.5902 41.4591 60.3412 44.2831C61.1981 47.4804 59.5519 49.7096 59.5281 49.8547Z" fill="#501200"/>
<path d="M43.666 55.3921C43.5608 55.4693 43.4413 55.5161 43.3231 55.5263C43.1635 55.483 39.6787 55.1808 38.1261 52.3924C36.9418 50.2683 37.6846 47.9339 40.1747 47.2201C40.5898 47.0576 40.8173 47.8374 40.1836 48.0136C39.8404 48.1019 39.5066 48.2705 39.2097 48.5056C38.9127 48.7407 38.6612 49.0355 38.4759 49.3657C38.2952 49.8409 38.2237 50.3322 38.2676 50.7964C38.3114 51.2607 38.4694 51.6838 38.7275 52.0286C39.7699 53.6742 41.4985 54.6866 43.5334 54.8433C43.752 54.8296 43.8304 55.0558 43.8003 55.2829C43.7457 55.2211 43.7315 55.3287 43.666 55.3921Z" fill="#501200"/>
<path d="M52.1173 57.6271C51.8742 56.8015 51.8916 56.2496 52.7824 55.7923C53.6732 55.3349 54.1941 55.8823 54.4372 56.7079C55.427 59.4583 56.2526 62.2618 57.0781 65.0653C57.1152 65.2315 57.1207 65.4036 57.0942 65.5719C57.0678 65.7403 57.01 65.9016 56.924 66.0465C56.8381 66.1915 56.7257 66.3173 56.5933 66.4168C56.461 66.5163 56.3112 66.5876 56.1525 66.6264C55.9939 66.6653 55.8295 66.6711 55.6687 66.6435C55.5079 66.6159 55.3539 66.5554 55.2155 66.4654C55.0771 66.3755 54.957 66.2578 54.862 66.1193C54.767 65.9807 54.699 65.8238 54.6619 65.6577C54.1127 64.4037 52.5073 58.9514 52.1173 57.6271Z" fill="#501200"/>
<path d="M40.9866 43.3256C44.6516 40.4676 49.0985 38.9115 53.6858 38.882C53.8819 38.885 54.0737 38.9453 54.2396 39.0563C54.4055 39.1673 54.5389 39.3244 54.6246 39.51C55.8122 42.5017 60.801 55.2417 52.7398 57.9684C44.6786 60.6952 41.2945 47.4151 40.5952 44.324C40.5487 44.1346 40.5617 43.9352 40.6322 43.7553C40.7028 43.5754 40.8271 43.4247 40.9866 43.3256Z" fill="#FFB949"/>
<path d="M50.3122 71.2136L64.2147 65.8239C64.5967 65.7127 64.6091 65.1831 64.2366 64.8902C58.5641 61.8449 52.1985 65.1097 49.7916 70.424C49.7348 70.5072 49.7044 70.6074 49.7045 70.7111C49.7046 70.8148 49.7353 70.9168 49.7922 71.0032C49.8492 71.0897 49.9298 71.1563 50.0228 71.1939C50.1159 71.2316 50.217 71.2385 50.3122 71.2136Z" fill="#FFB949"/>
<path d="M109.542 110.923C110.183 107.396 111.981 104.215 114.626 101.929C116.458 100.479 118.741 99.8016 121.027 100.031C122.738 96.1466 127.47 92.094 135.455 93.0417C135.651 93.0713 135.828 93.1799 135.949 93.3443C136.069 93.5086 136.123 93.7156 136.1 93.9217C136.077 94.1275 135.979 94.3158 135.825 94.4465C135.672 94.5773 135.476 94.64 135.278 94.6215C128.405 93.7909 124.232 97.0281 122.594 100.29C128.026 101.731 130.247 109.239 125.261 110.499C123.952 110.831 119.295 110.136 120.509 101.59C118.724 101.512 116.968 102.078 115.533 103.193C113.221 105.228 111.637 108.022 111.037 111.12C110.994 111.31 110.885 111.477 110.732 111.587C110.578 111.699 110.391 111.746 110.205 111.722C110.02 111.697 109.85 111.602 109.728 111.455C109.607 111.308 109.54 111.118 109.542 110.923ZM122.032 101.784C120.592 106.459 123.176 110.033 125.447 108.815C128.585 107.139 124.722 101.441 122.032 101.784Z" fill="#FFB949"/>
<path d="M134.075 125.133C133.901 125.136 133.733 125.077 133.597 124.965C133.46 124.854 133.364 124.697 133.325 124.521C133.286 124.345 133.304 124.16 133.379 123.997C133.455 123.833 133.579 123.702 133.736 123.624C134.08 123.454 142.102 119.487 148.32 121.56C148.504 121.631 148.653 121.773 148.738 121.957C148.823 122.141 148.838 122.353 148.779 122.547C148.718 122.742 148.59 122.906 148.418 123.004C148.248 123.102 148.047 123.127 147.858 123.074C141.988 121.109 134.551 125.127 134.075 125.133Z" fill="#501200"/>
<path d="M92.9701 100.697C92.8227 96.3362 92.1389 92.0138 90.9354 87.8364C90.8776 87.64 90.8938 87.4273 90.9821 87.2434C91.0704 87.0596 91.2238 86.9188 91.408 86.8508C91.5939 86.7828 91.7984 86.7928 91.9769 86.8787C92.1554 86.9648 92.2941 87.1201 92.3657 87.3118C93.6288 91.6302 94.3414 96.1047 94.4848 100.619C94.4944 100.829 94.425 101.035 94.2886 101.191C94.154 101.347 93.9647 101.441 93.7635 101.451C93.5641 101.461 93.3666 101.388 93.2175 101.246C93.0684 101.105 92.9797 100.907 92.9701 100.697Z" fill="#501200"/>
</svg>
